<svg width="22" height="22" viewBox="0 0 22 22" fill="none" xmlns="http://www.w3.org/2000/svg">
<path d="M6.61715 1.42884C6.67215 0.646273 7.12355 0.240845 7.97055 0.240845H13.8359C14.6829 0.240845 15.1249 0.646273 15.1803 1.42884H6.61715ZM4.98719 3.97927C5.12548 3.14131 5.52148 2.68088 6.44194 2.68088H15.2907C16.2115 2.68088 16.6071 3.14131 16.7454 3.97927H4.98719ZM5.73323 21.7592C3.81805 21.7592 2.8418 20.8108 2.8418 18.9047V8.29756C2.8418 6.40084 3.81805 5.44345 5.73323 5.44345H16.2665C18.1911 5.44345 19.1579 6.40084 19.1579 8.29756V18.9047C19.1579 20.8014 18.2002 21.7592 16.5427 21.7592H5.73323ZM13.5299 12.0352C13.9302 11.9268 14.0551 11.8435 14.0551 11.3599V9.72599C14.0551 9.40934 13.9467 9.26752 13.5051 9.37595L11.0623 9.98449C10.6538 10.0847 10.5622 10.168 10.5622 10.6598V14.4195C10.5622 14.7864 10.5288 14.8532 10.112 14.9695L9.34515 15.1698C8.58655 15.3702 7.94462 15.82 7.94462 16.6371C7.94462 17.3455 8.47812 17.8625 9.32001 17.8625C10.5123 17.8625 11.3208 17.0037 11.3208 15.7948V12.9356C11.3208 12.6272 11.3876 12.544 11.5793 12.5019L13.5299 12.0352Z" fill="white"/>
</svg>
