<svg width="33" height="33" viewBox="0 0 33 33" fill="none" xmlns="http://www.w3.org/2000/svg">
<path d="M16.5344 30.1469C13.4635 27.0531 11.0174 24.5552 9.196 22.6531C7.37458 20.751 5.98813 19.1698 5.03663 17.9094C4.08513 16.649 3.46637 15.5719 3.18037 14.6781C2.89437 13.7844 2.75092 12.7875 2.75 11.6875C2.75 9.57917 3.48333 7.79167 4.95 6.325C6.41667 4.85833 8.20417 4.125 10.3125 4.125C11.3438 4.125 12.3406 4.31383 13.3031 4.6915C14.2656 5.06917 15.125 5.61367 15.8813 6.325L13.75 13.75H17.875L16.7063 25.2656L20.625 12.375H16.5L18.9406 5.0875C19.5135 4.76667 20.1153 4.52604 20.746 4.36562C21.3767 4.20521 22.0238 4.125 22.6875 4.125C24.7958 4.125 26.5833 4.85833 28.05 6.325C29.5167 7.79167 30.25 9.57917 30.25 11.6875C30.25 12.7875 30.101 13.7958 29.8031 14.7125C29.5052 15.6292 28.875 16.7237 27.9125 17.996C26.95 19.2683 25.5635 20.8496 23.7531 22.7397C21.9427 24.6299 19.5365 27.099 16.5344 30.1469Z" fill="#FF4343"/>
</svg>
