<svg width="97" height="97" viewBox="0 0 97 97" fill="none" xmlns="http://www.w3.org/2000/svg">
<path d="M29.1 22.6333L31.3892 20.3441C31.0889 20.043 30.732 19.8041 30.3392 19.6411C29.9464 19.4781 29.5253 19.3942 29.1 19.3942C28.6747 19.3942 28.2536 19.4781 27.8608 19.6411C27.468 19.8041 27.1111 20.043 26.8108 20.3441L29.1 22.6333ZM9.7 6.46667H87.3V0H9.7V6.46667ZM90.5333 9.7V87.3H97V9.7H90.5333ZM87.3 90.5333H9.7V97H87.3V90.5333ZM6.46667 87.3V9.7H0V87.3H6.46667ZM9.7 90.5333C8.84247 90.5333 8.02006 90.1927 7.41369 89.5863C6.80732 88.9799 6.46667 88.1575 6.46667 87.3H0C0 89.8726 1.02196 92.3398 2.84106 94.1589C4.66017 95.978 7.1274 97 9.7 97V90.5333ZM90.5333 87.3C90.5333 88.1575 90.1927 88.9799 89.5863 89.5863C88.9799 90.1927 88.1575 90.5333 87.3 90.5333V97C89.8726 97 92.3398 95.978 94.1589 94.1589C95.978 92.3398 97 89.8726 97 87.3H90.5333ZM87.3 6.46667C88.1575 6.46667 88.9799 6.80732 89.5863 7.41369C90.1927 8.02006 90.5333 8.84247 90.5333 9.7H97C97 7.1274 95.978 4.66017 94.1589 2.84106C92.3398 1.02196 89.8726 0 87.3 0V6.46667ZM9.7 0C7.1274 0 4.66017 1.02196 2.84106 2.84106C1.02196 4.66017 0 7.1274 0 9.7H6.46667C6.46667 8.84247 6.80732 8.02006 7.41369 7.41369C8.02006 6.80732 8.84247 6.46667 9.7 6.46667V0ZM3.23333 71.1333H93.7667V64.6667H3.23333V71.1333ZM5.52253 50.7892L31.3892 24.9225L26.8108 20.3441L0.944133 46.2108L5.52253 50.7892ZM26.8108 24.9225L72.0775 70.1892L76.6559 65.6108L31.3892 20.3441L26.8108 24.9225ZM67.9 32.3333C67.0425 32.3333 66.2201 31.9927 65.6137 31.3863C65.0073 30.7799 64.6667 29.9575 64.6667 29.1H58.2C58.2 31.6726 59.222 34.1398 61.0411 35.9589C62.8602 37.778 65.3274 38.8 67.9 38.8V32.3333ZM71.1333 29.1C71.1333 29.9575 70.7927 30.7799 70.1863 31.3863C69.5799 31.9927 68.7575 32.3333 67.9 32.3333V38.8C70.4726 38.8 72.9398 37.778 74.7589 35.9589C76.578 34.1398 77.6 31.6726 77.6 29.1H71.1333ZM67.9 25.8667C68.7575 25.8667 69.5799 26.2073 70.1863 26.8137C70.7927 27.4201 71.1333 28.2425 71.1333 29.1H77.6C77.6 26.5274 76.578 24.0602 74.7589 22.2411C72.9398 20.422 70.4726 19.4 67.9 19.4V25.8667ZM67.9 19.4C65.3274 19.4 62.8602 20.422 61.0411 22.2411C59.222 24.0602 58.2 26.5274 58.2 29.1H64.6667C64.6667 28.2425 65.0073 27.4201 65.6137 26.8137C66.2201 26.2073 67.0425 25.8667 67.9 25.8667V19.4Z" fill="white"/>
</svg>
