<svg width="16" height="18" viewBox="0 0 16 18" fill="none" xmlns="http://www.w3.org/2000/svg">
<path d="M1.192 0.669982L14.76 8.30298C14.8836 8.37261 14.9865 8.47386 15.058 8.59633C15.1296 8.71881 15.1673 8.85812 15.1673 8.99998C15.1673 9.14184 15.1296 9.28115 15.058 9.40363C14.9865 9.52611 14.8836 9.62735 14.76 9.69698L1.192 17.33C1.07022 17.3984 0.932636 17.4338 0.792939 17.4326C0.653243 17.4313 0.516305 17.3935 0.395751 17.323C0.275197 17.2524 0.175231 17.1514 0.105799 17.0302C0.0363677 16.909 -0.000108409 16.7717 2.4202e-07 16.632V1.36798C6.61928e-05 1.22836 0.0366697 1.0912 0.106173 0.970109C0.175676 0.849021 0.275659 0.748232 0.396183 0.677757C0.516708 0.607282 0.653578 0.569577 0.793189 0.568388C0.932801 0.5672 1.07029 0.601569 1.192 0.669982Z" fill="white"/>
</svg>
