<svg width="39" height="39" viewBox="0 0 39 39" fill="none" xmlns="http://www.w3.org/2000/svg">
<g clip-path="url(#clip0_139_244)">
<path d="M31.0774 13.4428C31.373 13.4427 31.6643 13.5142 31.9263 13.6513C32.1882 13.7885 32.413 13.9871 32.5813 14.2301L32.6788 14.391C33.7346 16.1072 34.2327 18.1083 34.1047 20.1191C32.9361 19.7089 31.7065 19.4996 30.468 19.5C30.468 18.2934 30.117 17.1698 29.5149 16.224C29.3455 15.9467 29.2531 15.6293 29.2471 15.3044C29.2412 14.9795 29.322 14.6589 29.4811 14.3756C29.6403 14.0922 29.8721 13.8565 30.1527 13.6925C30.4332 13.5286 30.7524 13.4424 31.0774 13.4428ZM19.4992 30.4688V30.3323L18.4146 29.25H19.5675C19.7089 27.978 20.0719 26.7406 20.64 25.5938H18.417L20.1744 23.8388L20.3524 23.6316C20.6245 23.2606 20.7468 22.8006 20.6947 22.3434C20.6426 21.8862 20.4201 21.4655 20.0714 21.1652C19.7228 20.8649 19.2738 20.7071 18.814 20.7233C18.3541 20.7395 17.9173 20.9285 17.5907 21.2526L12.7108 26.13L12.5329 26.3372C12.2728 26.6893 12.1476 27.1231 12.1803 27.5597C12.213 27.9963 12.4012 28.4067 12.7108 28.7162L17.5907 33.5961L17.7954 33.7716C18.1149 34.0084 18.5028 34.1347 18.9004 34.1311C19.2981 34.1276 19.6837 33.9945 19.9989 33.7521C19.6667 32.6893 19.4982 31.5822 19.4992 30.4688ZM18.8167 5.40639C19.1263 5.09678 19.5366 4.90854 19.9732 4.87588C20.4098 4.84323 20.8436 4.96833 21.1957 5.22845L21.4005 5.40639L26.2804 10.2838L26.4583 10.491C26.6879 10.8016 26.8132 11.1769 26.8163 11.5632C26.8193 11.9494 26.7 12.3267 26.4754 12.6409L26.2804 12.87L21.4005 17.7499L21.1957 17.9254C20.8854 18.1553 20.5102 18.2811 20.124 18.2846C19.7377 18.2881 19.3603 18.1692 19.0459 17.9449L18.8167 17.7499L18.6388 17.5451C18.4087 17.2343 18.283 16.8585 18.2799 16.4718C18.2769 16.085 18.3965 15.7073 18.6217 15.3928L18.8167 15.1637L20.5742 13.4038H14.6242C13.0771 13.4036 11.5878 13.9918 10.4584 15.0492C9.32906 16.1066 8.64417 17.554 8.54268 19.0978L8.53049 19.5C8.53049 20.5262 8.78399 21.4939 9.23249 22.3446L9.50061 22.7931C9.74658 23.2076 9.81889 23.7025 9.70181 24.17C9.58473 24.6376 9.28774 25.04 8.87545 25.2897C8.46316 25.5394 7.96895 25.6161 7.50035 25.5033C7.03175 25.3904 6.62669 25.097 6.3733 24.687C5.46852 23.247 4.95611 21.5954 4.88697 19.8962C4.81783 18.1969 5.19435 16.5092 5.97915 15.0004C6.76395 13.4917 7.92973 12.2145 9.36075 11.2956C10.7918 10.3767 12.4383 9.84805 14.1367 9.7622L14.6242 9.75001L20.5717 9.74757L18.8167 7.99257L18.6388 7.78539C18.3787 7.43324 18.2536 6.99944 18.2862 6.56286C18.3189 6.12628 18.5071 5.71592 18.8167 5.40639ZM38.9992 30.4688C38.9992 32.7314 38.1004 34.9013 36.5005 36.5013C34.9006 38.1012 32.7306 39 30.468 39C28.2054 39 26.0354 38.1012 24.4355 36.5013C22.8356 34.9013 21.9367 32.7314 21.9367 30.4688C21.9367 28.2061 22.8356 26.0362 24.4355 24.4363C26.0354 22.8363 28.2054 21.9375 30.468 21.9375C32.7306 21.9375 34.9006 22.8363 36.5005 24.4363C38.1004 26.0362 38.9992 28.2061 38.9992 30.4688ZM31.8037 23.9826C31.5027 23.8933 31.1813 23.9 30.8843 24.0018C30.5872 24.1036 30.3293 24.2954 30.1462 24.5505C29.6271 25.2891 28.7325 26.3201 27.4845 26.9393C27.3412 27.011 27.2135 27.1102 27.1086 27.2312C27.0037 27.3523 26.9237 27.4928 26.8731 27.6448C26.8225 27.7968 26.8024 27.9573 26.8138 28.1171C26.8252 28.2768 26.868 28.4328 26.9397 28.576C27.0114 28.7193 27.1106 28.847 27.2317 28.9519C27.3527 29.0568 27.4933 29.1368 27.6453 29.1874C27.7973 29.238 27.9577 29.2582 28.1175 29.2467C28.2773 29.2353 28.4332 29.1925 28.5765 29.1208C29.2592 28.7731 29.8948 28.3398 30.468 27.8314V35.3438C30.468 35.667 30.5964 35.977 30.825 36.2055C31.0535 36.4341 31.3635 36.5625 31.6867 36.5625C32.01 36.5625 32.32 36.4341 32.5485 36.2055C32.7771 35.977 32.9055 35.667 32.9055 35.3438V25.4085C32.9055 24.5578 32.2547 24.1093 31.8037 23.9826Z" fill="white"/>
</g>
<defs>
<clipPath id="clip0_139_244">
<rect width="39" height="39" fill="white"/>
</clipPath>
</defs>
</svg>
