<svg width="33" height="29" viewBox="0 0 33 29" fill="none" xmlns="http://www.w3.org/2000/svg">
<path d="M19.3827 24.25L21.2937 26.161C21.5898 26.4674 21.7535 26.8779 21.7498 27.304C21.7461 27.73 21.5752 28.1376 21.274 28.4389C20.9727 28.7402 20.5651 28.9111 20.139 28.9148C19.713 28.9185 19.3025 28.7547 18.996 28.4587L14.3989 23.8632C14.0942 23.5585 13.9231 23.1452 13.9231 22.7143C13.9231 22.2834 14.0942 21.8702 14.3989 21.5655L18.996 16.9683C19.3009 16.6636 19.7144 16.4925 20.1455 16.4927C20.5765 16.4928 20.9899 16.6642 21.2946 16.9691C21.5993 17.2741 21.7704 17.6875 21.7702 18.1186C21.7701 18.5497 21.5987 18.963 21.2937 19.2677L19.5599 21H23C24.7239 21 26.3772 20.3151 27.5962 19.0961C28.8152 17.8772 29.5 16.2239 29.5 14.5C29.5 12.776 28.8152 11.1227 27.5962 9.90376C26.3772 8.68477 24.7239 7.99995 23 7.99995C22.569 7.99995 22.1557 7.82875 21.851 7.524C21.5462 7.21925 21.375 6.80593 21.375 6.37495C21.375 5.94397 21.5462 5.53065 21.851 5.2259C22.1557 4.92116 22.569 4.74995 23 4.74995C25.5859 4.74995 28.0658 5.77718 29.8943 7.60566C31.7228 9.43414 32.75 11.9141 32.75 14.5C32.75 17.0858 31.7228 19.5658 29.8943 21.3942C28.0658 23.2227 25.5859 24.25 23 24.25H19.3827ZM13.6936 4.74995L11.911 2.96895C11.76 2.81797 11.6403 2.63873 11.5585 2.44147C11.4768 2.24421 11.4348 2.03278 11.4348 1.81926C11.4348 1.38805 11.6061 0.974492 11.911 0.669575C12.2159 0.364659 12.6295 0.193359 13.0607 0.193359C13.4919 0.193359 13.9055 0.364659 14.2104 0.669575L18.8059 5.2667C19.1105 5.57143 19.2817 5.98468 19.2817 6.41558C19.2817 6.84647 19.1105 7.25972 18.8059 7.56445L14.2104 12.16C13.9057 12.4649 13.4923 12.6363 13.0613 12.6364C12.6302 12.6366 12.2167 12.4655 11.9118 12.1608C11.6069 11.8561 11.4355 11.4427 11.4354 11.0117C11.4352 10.5806 11.6063 10.1671 11.911 9.8622L13.7749 7.99995H10C8.27609 7.99995 6.62279 8.68477 5.40381 9.90376C4.18482 11.1227 3.5 12.776 3.5 14.5C3.5 16.2239 4.18482 17.8772 5.40381 19.0961C6.62279 20.3151 8.27609 21 10 21C10.431 21 10.8443 21.1712 11.149 21.4759C11.4538 21.7806 11.625 22.194 11.625 22.625C11.625 23.0559 11.4538 23.4693 11.149 23.774C10.8443 24.0787 10.431 24.25 10 24.25C7.41414 24.25 4.93419 23.2227 3.10571 21.3942C1.27723 19.5658 0.25 17.0858 0.25 14.5C0.25 11.9141 1.27723 9.43414 3.10571 7.60566C4.93419 5.77718 7.41414 4.74995 10 4.74995H13.6936Z" fill="#585858"/>
</svg>
