<svg width="34" height="34" viewBox="0 0 34 34" fill="none" xmlns="http://www.w3.org/2000/svg">
<g clip-path="url(#clip0_12_2120)">
<path d="M17 0C26.3891 0 34 7.6109 34 17C34 26.3891 26.3891 34 17 34C7.6109 34 0 26.3891 0 17C0 7.6109 7.6109 0 17 0ZM14.8733 9.5982C14.7684 9.48398 14.6416 9.39196 14.5005 9.3276C14.3594 9.26324 14.2069 9.22784 14.0518 9.2235C13.8968 9.21916 13.7425 9.24597 13.598 9.30233C13.4535 9.3587 13.3218 9.44347 13.2107 9.55165C13.0996 9.65982 13.0113 9.78919 12.951 9.9321C12.8908 10.075 12.8598 10.2285 12.86 10.3836C12.8601 10.5387 12.8914 10.6922 12.952 10.835C13.0125 10.9778 13.101 11.107 13.2124 11.2149L18.9958 17.1496L13.2209 22.9636C13.1056 23.0697 13.013 23.198 12.9487 23.3409C12.8844 23.4837 12.8497 23.6382 12.8467 23.7948C12.8437 23.9514 12.8725 24.1071 12.9314 24.2523C12.9902 24.3975 13.0779 24.5292 13.1891 24.6396C13.3002 24.75 13.4327 24.8367 13.5783 24.8945C13.7239 24.9523 13.8797 24.9799 14.0363 24.9758C14.193 24.9717 14.3471 24.9359 14.4895 24.8705C14.6319 24.8052 14.7596 24.7117 14.8648 24.5956L21.4438 17.9758C21.6593 17.7605 21.7811 17.4688 21.7827 17.1641C21.7843 16.8594 21.6656 16.5665 21.4523 16.3489L14.8733 9.5982Z" fill="white"/>
</g>
<defs>
<clipPath id="clip0_12_2120">
<rect width="34" height="34" fill="white"/>
</clipPath>
</defs>
</svg>
