<svg width="29" height="24" viewBox="0 0 29 24" fill="none" xmlns="http://www.w3.org/2000/svg">
<path d="M20.4664 17.2995C19.829 17.0984 19.0154 16.5745 18.1048 15.6629C17.3231 14.8977 16.5167 13.9118 15.6917 12.8373C15.4944 13.0992 15.2967 13.3639 15.0987 13.6313C14.5594 14.3614 14.0076 15.0988 13.4456 15.8238C15.4091 18.2059 17.4469 20.5448 20.4684 20.9305V23.7149L28.2595 19.2186L20.4674 14.7193V17.2995H20.4664ZM7.47879 8.30698C8.25841 9.07011 9.06485 10.056 9.89191 11.1305C10.092 10.8604 10.2941 10.5943 10.4962 10.3179C11.035 9.58623 11.5823 8.86087 12.138 8.14198C10.0425 5.60098 7.87582 3.08164 4.51085 2.96098H0.901476V6.57036H4.51085C5.18632 6.54251 6.24541 7.07051 7.47879 8.30595V8.30698ZM20.4664 6.6642V9.27945L28.2585 4.78011L20.4664 0.280762V3.01048C18.5028 3.23736 16.9343 4.40061 15.5679 5.73711C13.3023 7.98936 11.3223 11.0666 9.36804 13.5127C7.4427 16.0259 5.51116 17.5212 4.50879 17.4005H0.899414V21.0099H4.50879C6.76207 20.979 8.51004 19.7044 10.0157 18.2328C12.2782 15.9805 14.2603 12.9043 16.2135 10.4592C17.8047 8.37917 19.3939 7.01482 20.4664 6.6642Z" fill="#585858"/>
</svg>
