<svg width="13" height="14" viewBox="0 0 13 14" fill="none" xmlns="http://www.w3.org/2000/svg">
<path d="M6.5 7.15736C9.60583 7.15736 12.7928 9.19561 12.9992 13.2904C13.0072 13.4483 12.9527 13.6028 12.8478 13.7202C12.743 13.8375 12.5962 13.9081 12.4398 13.9163C10.801 14.0006 3.21138 14.0523 0.560943 13.9163C0.404435 13.9083 0.257493 13.8378 0.15244 13.7204C0.0473866 13.6031 -0.00717438 13.4484 0.000758303 13.2904C0.207183 9.19641 3.39417 7.15736 6.5 7.15736ZM6.5 0C5.7164 0 4.9649 0.314198 4.41081 0.873475C3.85672 1.43275 3.54544 2.19129 3.54544 2.98223C3.54544 3.77317 3.85672 4.53171 4.41081 5.09099C4.9649 5.65026 5.7164 5.96446 6.5 5.96446C7.2836 5.96446 8.0351 5.65026 8.58919 5.09099C9.14328 4.53171 9.45456 3.77317 9.45456 2.98223C9.45456 2.19129 9.14328 1.43275 8.58919 0.873475C8.0351 0.314198 7.2836 0 6.5 0Z" fill="#A2A2A2"/>
</svg>
