<svg width="21" height="21" viewBox="0 0 21 21" fill="none" xmlns="http://www.w3.org/2000/svg">
<path d="M10.5932 20.2579L10.5822 20.2599L10.5112 20.2949L10.4912 20.2989L10.4772 20.2949L10.4062 20.2599C10.3955 20.2566 10.3875 20.2583 10.3822 20.2649L10.3782 20.2749L10.3612 20.7029L10.3662 20.7229L10.3762 20.7359L10.4802 20.8099L10.4952 20.8139L10.5072 20.8099L10.6112 20.7359L10.6232 20.7199L10.6272 20.7029L10.6102 20.2759C10.6075 20.2653 10.6018 20.2593 10.5932 20.2579ZM10.8582 20.1449L10.8452 20.1469L10.6602 20.2399L10.6502 20.2499L10.6472 20.2609L10.6652 20.6909L10.6702 20.7029L10.6782 20.7099L10.8792 20.8029C10.8918 20.8063 10.9015 20.8036 10.9082 20.7949L10.9122 20.7809L10.8782 20.1669C10.8748 20.1549 10.8682 20.1476 10.8582 20.1449ZM10.1432 20.1469C10.1388 20.1443 10.1335 20.1434 10.1285 20.1445C10.1234 20.1456 10.119 20.1487 10.1162 20.1529L10.1102 20.1669L10.0762 20.7809C10.0768 20.7929 10.0825 20.8009 10.0932 20.8049L10.1082 20.8029L10.3092 20.7099L10.3192 20.7019L10.3232 20.6909L10.3402 20.2609L10.3372 20.2489L10.3272 20.2389L10.1432 20.1469Z" fill="white"/>
<path d="M11.26 0.299948C11.4165 0.18799 11.5997 0.119047 11.7911 0.100004C11.9826 0.0809614 12.1758 0.112485 12.3512 0.191426C12.5267 0.270368 12.6785 0.393966 12.7912 0.549879C12.904 0.705792 12.9739 0.888565 12.994 1.07995L13 1.19395V16.8059C13.0001 16.9984 12.9496 17.1875 12.8538 17.3543C12.7579 17.5212 12.6199 17.66 12.4536 17.7568C12.2874 17.8537 12.0986 17.9052 11.9061 17.9063C11.7137 17.9074 11.5244 17.8579 11.357 17.7629L11.261 17.7009L4.68 12.9999H2C1.49542 13.0001 1.00943 12.8095 0.639452 12.4665C0.269471 12.1234 0.0428433 11.6531 0.00500011 11.1499L0 10.9999V6.99995C9.25758e-05 6.49554 0.190772 6.0098 0.533837 5.64003C0.876903 5.27026 1.34702 5.04378 1.85 5.00595L2 4.99995H4.68L11.26 0.299948ZM15.586 6.17195L17 7.58595L18.414 6.17195C18.5062 6.07644 18.6166 6.00026 18.7386 5.94785C18.8606 5.89544 18.9918 5.86785 19.1246 5.8667C19.2574 5.86554 19.3891 5.89085 19.512 5.94113C19.6348 5.99141 19.7465 6.06566 19.8404 6.15955C19.9343 6.25345 20.0085 6.3651 20.0588 6.48799C20.1091 6.61089 20.1344 6.74257 20.1333 6.87535C20.1321 7.00813 20.1045 7.13935 20.0521 7.26135C19.9997 7.38336 19.9235 7.4937 19.828 7.58595L18.414 8.99995L19.828 10.4139C20.0156 10.6015 20.1211 10.8558 20.1212 11.1211C20.1213 11.3864 20.016 11.6408 19.8285 11.8284C19.641 12.0161 19.3866 12.1216 19.1214 12.1217C18.8561 12.1217 18.6016 12.0165 18.414 11.8289L17 10.4139L15.586 11.8289C15.3984 12.0165 15.1439 12.1217 14.8786 12.1217C14.6134 12.1216 14.359 12.0161 14.1715 11.8284C13.984 11.6408 13.8787 11.3864 13.8788 11.1211C13.8789 10.8558 13.9844 10.6015 14.172 10.4139L15.586 8.99995L14.172 7.58595C14.0765 7.4937 14.0003 7.38336 13.9479 7.26135C13.8955 7.13935 13.8679 7.00813 13.8667 6.87535C13.8656 6.74257 13.8909 6.61089 13.9412 6.48799C13.9915 6.3651 14.0657 6.25345 14.1596 6.15955C14.2535 6.06566 14.3652 5.99141 14.488 5.94113C14.6109 5.89085 14.7426 5.86554 14.8754 5.8667C15.0082 5.86785 15.1394 5.89544 15.2614 5.94785C15.3834 6.00026 15.4938 6.07644 15.586 6.17195Z" fill="white"/>
</svg>
