<svg width="20" height="21" viewBox="0 0 20 21" fill="none" xmlns="http://www.w3.org/2000/svg">
<path d="M10.5932 20.2579L10.5822 20.2599L10.5112 20.2949L10.4912 20.2989L10.4772 20.2949L10.4062 20.2599C10.3955 20.2566 10.3875 20.2583 10.3822 20.2649L10.3782 20.2749L10.3612 20.7029L10.3662 20.7229L10.3762 20.7359L10.4802 20.8099L10.4952 20.8139L10.5072 20.8099L10.6112 20.7359L10.6232 20.7199L10.6272 20.7029L10.6102 20.2759C10.6075 20.2653 10.6018 20.2593 10.5932 20.2579ZM10.8582 20.1449L10.8452 20.1469L10.6602 20.2399L10.6502 20.2499L10.6472 20.2609L10.6652 20.6909L10.6702 20.7029L10.6782 20.7099L10.8792 20.8029C10.8918 20.8063 10.9015 20.8036 10.9082 20.7949L10.9122 20.7809L10.8782 20.1669C10.8748 20.1549 10.8682 20.1476 10.8582 20.1449ZM10.1432 20.1469C10.1388 20.1443 10.1335 20.1434 10.1285 20.1445C10.1234 20.1456 10.119 20.1487 10.1162 20.1529L10.1102 20.1669L10.0762 20.7809C10.0768 20.7929 10.0825 20.8009 10.0932 20.8049L10.1082 20.8029L10.3092 20.7099L10.3192 20.7019L10.3232 20.6909L10.3402 20.2609L10.3372 20.2489L10.3272 20.2389L10.1432 20.1469Z" fill="white"/>
<path d="M11.26 0.299948C11.4165 0.18799 11.5997 0.119047 11.7911 0.100004C11.9826 0.0809614 12.1758 0.112485 12.3512 0.191426C12.5267 0.270368 12.6785 0.393966 12.7912 0.549879C12.904 0.705792 12.9739 0.888565 12.994 1.07995L13 1.19395V16.8059C13.0001 16.9984 12.9496 17.1875 12.8538 17.3543C12.7579 17.5212 12.6199 17.66 12.4536 17.7568C12.2874 17.8537 12.0986 17.9052 11.9061 17.9063C11.7137 17.9074 11.5244 17.8579 11.357 17.7629L11.261 17.7009L4.68 12.9999H2C1.49542 13.0001 1.00943 12.8095 0.639452 12.4665C0.269471 12.1234 0.0428434 11.6531 0.00500021 11.1499L1.00268e-07 10.9999V6.99995C-0.000159579 6.49537 0.190406 6.00938 0.533497 5.6394C0.876587 5.26942 1.34684 5.04279 1.85 5.00495L2 4.99995H4.68L11.26 0.299948ZM17.667 3.78295C18.401 4.43951 18.9881 5.24354 19.3901 6.14252C19.7922 7.0415 20 8.01518 20 8.99995C20 9.98472 19.7922 10.9584 19.3901 11.8574C18.9881 12.7564 18.401 13.5604 17.667 14.2169C17.5694 14.306 17.4551 14.3748 17.3308 14.4194C17.2064 14.464 17.0745 14.4835 16.9426 14.4769C16.8106 14.4702 16.6813 14.4374 16.5621 14.3805C16.4429 14.3236 16.3362 14.2436 16.2481 14.1452C16.1599 14.0467 16.0922 13.9318 16.0487 13.8071C16.0053 13.6823 15.987 13.5502 15.9949 13.4183C16.0028 13.2865 16.0367 13.1575 16.0948 13.0388C16.1528 12.9201 16.2338 12.8141 16.333 12.7269C16.8574 12.258 17.277 11.6836 17.5642 11.0414C17.8515 10.3991 18 9.7035 18 8.99995C18 7.51995 17.358 6.18995 16.333 5.27295C16.2338 5.18575 16.1528 5.07975 16.0948 4.96108C16.0367 4.84241 16.0028 4.71341 15.9949 4.58155C15.987 4.44968 16.0053 4.31756 16.0487 4.19281C16.0922 4.06806 16.1599 3.95315 16.2481 3.85473C16.3362 3.75631 16.4429 3.67633 16.5621 3.6194C16.6813 3.56246 16.8106 3.52971 16.9426 3.52304C17.0745 3.51636 17.2064 3.5359 17.3308 3.58051C17.4551 3.62512 17.5694 3.69392 17.667 3.78295ZM15.667 6.01895C16.0862 6.39401 16.4217 6.85328 16.6513 7.36677C16.881 7.88026 16.9998 8.43643 17 8.99895C17.0001 9.56181 16.8815 10.1184 16.6518 10.6322C16.4221 11.1461 16.0865 11.6057 15.667 11.9809C15.4774 12.1494 15.2308 12.2394 14.9773 12.2329C14.7237 12.2264 14.4821 12.1238 14.3014 11.9459C14.1206 11.7679 14.0143 11.5279 14.0038 11.2745C13.9933 11.0211 14.0796 10.7732 14.245 10.5809L14.333 10.4909C14.743 10.1229 15 9.59195 15 8.99995C15.0002 8.48805 14.804 7.99558 14.452 7.62395L14.333 7.50895C14.2338 7.42175 14.1528 7.31575 14.0948 7.19708C14.0367 7.07841 14.0028 6.94941 13.9949 6.81755C13.987 6.68568 14.0053 6.55356 14.0487 6.42881C14.0922 6.30406 14.1599 6.18915 14.2481 6.09073C14.3362 5.99231 14.4429 5.91233 14.5621 5.8554C14.6813 5.79846 14.8106 5.76571 14.9426 5.75904C15.0745 5.75237 15.2064 5.7719 15.3308 5.81651C15.4551 5.86112 15.5694 5.92992 15.667 6.01895Z" fill="white"/>
</svg>
