<svg width="69" height="69" viewBox="0 0 69 69" fill="none" xmlns="http://www.w3.org/2000/svg">
<path d="M16.2662 3.7101L12.3674 4.86369C15.1072 25.309 16.9266 43.3811 24.7834 61.3184H30.7266C25.3359 42.3703 19.3793 23.5301 16.2662 3.7101ZM18.948 5.10627C19.2984 7.26926 19.6892 9.42281 20.1205 11.5683C21.4412 11.9281 22.8023 12.4982 24.1769 13.1653C26.6432 14.3391 29.2037 15.835 31.7373 17.1422C34.2709 18.4494 36.7641 19.5545 38.9607 19.9857C41.1709 20.417 42.9768 20.2148 44.567 19.0424C47.5588 16.8322 49.742 15.5115 51.4805 14.8107C53.2055 14.11 54.6205 14.0156 55.7391 14.5682C56.7902 15.1072 57.2889 16.0641 57.6527 16.8727L58.34 15.3498C57.3562 13.6113 55.9008 12.4685 53.9062 12.2152C51.723 11.9389 48.7312 12.7623 45.0117 15.6732C43.0711 17.1961 40.5644 16.9805 38.1926 16.0506C35.8342 15.1207 33.3814 13.5035 30.8883 11.7866C28.3816 10.0697 25.8615 8.2544 23.5031 6.93773C21.8455 6.01324 20.2957 5.36637 18.948 5.10627ZM20.673 14.3121C21.3199 17.4117 22.0207 20.4979 22.7754 23.5705V15.1881C22.0476 14.8377 21.3469 14.5412 20.673 14.3121ZM54.5531 16.7109C50.9144 31.616 47.1275 46.8715 41.3865 61.3184H46.5885C51.2379 48.5965 53.4615 33.8936 56.0625 19.3658C55.8199 18.8537 55.6582 18.3686 55.483 17.9643C55.173 17.25 54.9035 16.8727 54.634 16.7379C54.607 16.7244 54.5801 16.7109 54.5531 16.7109ZM26.8184 17.2635V38.8799C27.6135 41.7234 28.4221 44.5535 29.2441 47.3836V18.5707C28.4221 18.1395 27.6135 17.6947 26.8184 17.2635ZM48.6504 19.1367C47.9226 19.6219 47.1141 20.1879 46.2246 20.8348V38.8125H46.3594C47.1545 35.9959 47.9092 33.1793 48.6504 30.3492V19.1367ZM33.2871 20.5922V61.3184H35.7129V21.5895C34.9043 21.293 34.0957 20.9561 33.2871 20.5922ZM42.1816 22.5193C41.3865 22.6137 40.5779 22.6271 39.7559 22.5463V58.9061C40.6049 56.6959 41.4135 54.4723 42.1816 52.2217V22.5193ZM22.0881 63.7441L20.0531 65.9004H48.9469L46.9119 63.7441H22.0881Z" fill="#FF4343"/>
</svg>
